<svg width="32" height="37" viewBox="0 0 32 37" fill="none" xmlns="http://www.w3.org/2000/svg">
<g style="mix-blend-mode:screen">
<path d="M6.98258 23.4648V13.5294L15.5799 8.49616L23.8913 13.6947V23.2996L15.58 28.2981L6.98258 23.4648ZM15.0885 1.36603L15.0885 7.62309L6.41878 12.6285L1 9.5L15.0885 1.36603ZM0.5 10.366L5.98258 13.5314V23.4686L0.5 26.634V10.366ZM16.0885 1.36603L30.1769 9.5L24.4017 12.8343L16.0885 7.63475L16.0885 1.36603ZM24.8913 23.2937V13.7063L30.6769 10.366V26.634L24.8913 23.2937ZM24.3965 24.1627L30.1769 27.5L16.0885 35.634V29.1592L24.3965 24.1627ZM15.0885 29.169L15.0885 35.634L1 27.5L6.48587 24.3327L15.0885 29.169Z" stroke="#007F6D"/>
</g>
<g clip-path="url(#clip0_13_81)">
<path d="M18.8666 18.3898C19.3434 17.913 19.6113 17.2662 19.6113 16.5919C19.6113 15.9176 19.3434 15.2709 18.8666 14.794C18.3897 14.3172 17.743 14.0493 17.0687 14.0493C16.3944 14.0493 15.7476 14.3172 15.2708 14.794L12.412 17.6528V21.2528H16.012L18.8666 18.3898Z" stroke="#00A991" strokeWidth="1.01359" strokeLinecap="round" strokeLinejoin="round"/>
<path d="M17.0708 16.5941L11.1414 22.5235" stroke="#00A991" strokeWidth="1.01359" strokeLinecap="round" strokeLinejoin="round"/>
<path d="M17.7061 19.5588H14.1061" stroke="#00A991" strokeWidth="1.01359" strokeLinecap="round" strokeLinejoin="round"/>
</g>
<defs>
<clipPath id="clip0_13_81">
<rect width="10.1647" height="10.1647" fill="white" transform="translate(10.2944 13.2058)"/>
</clipPath>
</defs>
</svg>
